<svg class="diagram-root" style="background: #f5f6f6" xmlns="http://www.w3.org/2000/svg" xmlns:xlink="http://www.w3.org/1999/xlink"><style>.diagram-root { font-family: "Helvetica Neue", sans-serif; font-size: 12px; } .t { overflow: visible; } .t-bg { y: 40; fill: #fff;   } .th { fill: #005aa0;   } .tht { fill: #fff; font-size: 14px;  } .tf { fill: #323c46; overflow: visible; } .tf.pk { fill: #005aa0; font-weight: bold; } .tf.fk { font-weight: bold; } .ty { fill: #adb1b5; font-weight: normal; text-anchor: end; } .r { fill: transparent; stroke: #c3c3c3; stroke-width: 1; } .l { stroke: 1; } .i { fill: #c2c7ce; stroke: #c2c7ce; } .i.ix { fill: #afb3b6; stroke: #000; } .fa { fill: transparent; overflow: visible; } .fa .bg.hover { fill: #f7f7f7; } .c { cy: 12; r: 4; stroke: #d2d2dc; fill: #d2d2dc; } .hr { fill: transparent; stroke: #323c46; stroke-opacity: 0.035; stroke-width: 13; } .dc { stroke: #fa5a3c; fill: #fa5a3c; } .x { stroke: white; stroke-width: 1; } .hl .th { fill: #1b9bff; } .hl .tht {  } .fhl .bg { fill: #e7f4ff; } .fhls .bg {  } .r.hl { stroke: #1b9bff; } .dim { opacity: 0.25; }</style><g class="drawing-wrapper" transform="translate(35, 57.56999999999999) scale(1,1)"><g class="rs"><path d="M 495.71 319.57 m -1, 0 a 1,1 0 1,0 2,0 a 1,1 0 1,0 -2,0 M 495.71 319.57 m -0.5, 0 a 0.5,0.5 0 1,0 1,0 a 0.5,0.5 0 1,0 -1,0  M495.71 319.57 L495.71 319.57 483.71 319.57 M 495.71 325.57 m -1, 0 a 1,1 0 1,0 2,0 a 1,1 0 1,0 -2,0 M 495.71 325.57 m -0.5, 0 a 0.5,0.5 0 1,0 1,0 a 0.5,0.5 0 1,0 -1,0  M495.71 325.57 L495.71 325.57 488.71 319.57 495.71 313.57 M 495.71 313.57 m -1, 0 a 1,1 0 1,0 2,0 a 1,1 0 1,0 -2,0 M 495.71 313.57 m -0.5, 0 a 0.5,0.5 0 1,0 1,0 a 0.5,0.5 0 1,0 -1,0  M483.71 319.57 Q 450.43 319.57, 417.15 272.5 T 350.58 225.43 M 338.58 225.43 m -1, 0 a 1,1 0 1,0 2,0 a 1,1 0 1,0 -2,0 M 338.58 225.43 m -0.5, 0 a 0.5,0.5 0 1,0 1,0 a 0.5,0.5 0 1,0 -1,0  M338.58 225.43 L338.58 225.43 350.58 225.43 M344.58 231.43 L344.58 231.43 344.58 219.43" id="h1277105345" class="r"></path><path d="M 495.71 344.57 m -1, 0 a 1,1 0 1,0 2,0 a 1,1 0 1,0 -2,0 M 495.71 344.57 m -0.5, 0 a 0.5,0.5 0 1,0 1,0 a 0.5,0.5 0 1,0 -1,0  M495.71 344.57 L495.71 344.57 483.71 344.57 M 495.71 350.57 m -1, 0 a 1,1 0 1,0 2,0 a 1,1 0 1,0 -2,0 M 495.71 350.57 m -0.5, 0 a 0.5,0.5 0 1,0 1,0 a 0.5,0.5 0 1,0 -1,0  M495.71 350.57 L495.71 350.57 488.71 344.57 495.71 338.57 M 495.71 338.57 m -1, 0 a 1,1 0 1,0 2,0 a 1,1 0 1,0 -2,0 M 495.71 338.57 m -0.5, 0 a 0.5,0.5 0 1,0 1,0 a 0.5,0.5 0 1,0 -1,0  M483.71 344.57 Q 450.97 344.57, 418.23 200.07 T 352.75 55.57 M 340.75 55.57 m -1, 0 a 1,1 0 1,0 2,0 a 1,1 0 1,0 -2,0 M 340.75 55.57 m -0.5, 0 a 0.5,0.5 0 1,0 1,0 a 0.5,0.5 0 1,0 -1,0  M340.75 55.57 L340.75 55.57 352.75 55.57 M346.75 61.57 L346.75 61.57 346.75 49.57" id="h1882043173" class="r"></path><path d="M 490.29 82.86 m -1, 0 a 1,1 0 1,0 2,0 a 1,1 0 1,0 -2,0 M 490.29 82.86 m -0.5, 0 a 0.5,0.5 0 1,0 1,0 a 0.5,0.5 0 1,0 -1,0  M490.29 82.86 L490.29 82.86 478.29 82.86 M 490.29 88.86 m -1, 0 a 1,1 0 1,0 2,0 a 1,1 0 1,0 -2,0 M 490.29 88.86 m -0.5, 0 a 0.5,0.5 0 1,0 1,0 a 0.5,0.5 0 1,0 -1,0  M490.29 88.86 L490.29 88.86 483.29 82.86 490.29 76.86 M 490.29 76.86 m -1, 0 a 1,1 0 1,0 2,0 a 1,1 0 1,0 -2,0 M 490.29 76.86 m -0.5, 0 a 0.5,0.5 0 1,0 1,0 a 0.5,0.5 0 1,0 -1,0  M478.29 82.86 Q 446.91 82.86, 415.52 69.22 T 352.75 55.57 M 340.75 55.57 m -1, 0 a 1,1 0 1,0 2,0 a 1,1 0 1,0 -2,0 M 340.75 55.57 m -0.5, 0 a 0.5,0.5 0 1,0 1,0 a 0.5,0.5 0 1,0 -1,0  M340.75 55.57 L340.75 55.57 352.75 55.57 M346.75 61.57 L346.75 61.57 346.75 49.57" id="h1248694035" class="r"></path><path d="M 490.29 107.86 m -1, 0 a 1,1 0 1,0 2,0 a 1,1 0 1,0 -2,0 M 490.29 107.86 m -0.5, 0 a 0.5,0.5 0 1,0 1,0 a 0.5,0.5 0 1,0 -1,0  M490.29 107.86 L490.29 107.86 478.29 107.86 M 490.29 113.86 m -1, 0 a 1,1 0 1,0 2,0 a 1,1 0 1,0 -2,0 M 490.29 113.86 m -0.5, 0 a 0.5,0.5 0 1,0 1,0 a 0.5,0.5 0 1,0 -1,0  M490.29 113.86 L490.29 113.86 483.29 107.86 490.29 101.86 M 490.29 101.86 m -1, 0 a 1,1 0 1,0 2,0 a 1,1 0 1,0 -2,0 M 490.29 101.86 m -0.5, 0 a 0.5,0.5 0 1,0 1,0 a 0.5,0.5 0 1,0 -1,0  M478.29 107.86 Q 446.37 107.86, 414.44 166.65 T 350.58 225.43 M 338.58 225.43 m -1, 0 a 1,1 0 1,0 2,0 a 1,1 0 1,0 -2,0 M 338.58 225.43 m -0.5, 0 a 0.5,0.5 0 1,0 1,0 a 0.5,0.5 0 1,0 -1,0  M338.58 225.43 L338.58 225.43 350.58 225.43 M344.58 231.43 L344.58 231.43 344.58 219.43" id="h1130742295" class="r"></path><path d="M -13 29.43 m -1, 0 a 1,1 0 1,0 2,0 a 1,1 0 1,0 -2,0 M -13 29.43 m -0.5, 0 a 0.5,0.5 0 1,0 1,0 a 0.5,0.5 0 1,0 -1,0  M-13 29.43 L-13 29.43 -25 29.43 M -13 35.43 m -1, 0 a 1,1 0 1,0 2,0 a 1,1 0 1,0 -2,0 M -13 35.43 m -0.5, 0 a 0.5,0.5 0 1,0 1,0 a 0.5,0.5 0 1,0 -1,0  M-13 35.43 L-13 35.43 -20 29.43 -13 23.43 M -13 23.43 m -1, 0 a 1,1 0 1,0 2,0 a 1,1 0 1,0 -2,0 M -13 23.43 m -0.5, 0 a 0.5,0.5 0 1,0 1,0 a 0.5,0.5 0 1,0 -1,0  M-25 29.43 C -75 29.43, -168.258 225.43, 130.43 225.43 M 142.43 225.43 m -1, 0 a 1,1 0 1,0 2,0 a 1,1 0 1,0 -2,0 M 142.43 225.43 m -0.5, 0 a 0.5,0.5 0 1,0 1,0 a 0.5,0.5 0 1,0 -1,0  M142.43 225.43 L142.43 225.43 130.43 225.43 M136.43 231.43 L136.43 231.43 136.43 219.43" id="h221257298" class="r"></path><path d="M -5.43 438.57 m -1, 0 a 1,1 0 1,0 2,0 a 1,1 0 1,0 -2,0 M -5.43 438.57 m -0.5, 0 a 0.5,0.5 0 1,0 1,0 a 0.5,0.5 0 1,0 -1,0  M-5.43 438.57 L-5.43 438.57 -17.43 438.57 M -5.43 444.57 m -1, 0 a 1,1 0 1,0 2,0 a 1,1 0 1,0 -2,0 M -5.43 444.57 m -0.5, 0 a 0.5,0.5 0 1,0 1,0 a 0.5,0.5 0 1,0 -1,0  M-5.43 444.57 L-5.43 444.57 -12.43 438.57 -5.43 432.57 M -5.43 432.57 m -1, 0 a 1,1 0 1,0 2,0 a 1,1 0 1,0 -2,0 M -5.43 432.57 m -0.5, 0 a 0.5,0.5 0 1,0 1,0 a 0.5,0.5 0 1,0 -1,0  M-17.43 438.57 C -67.43 438.57, -156.14600000000002 225.43, 130.43 225.43 M 142.43 225.43 m -1, 0 a 1,1 0 1,0 2,0 a 1,1 0 1,0 -2,0 M 142.43 225.43 m -0.5, 0 a 0.5,0.5 0 1,0 1,0 a 0.5,0.5 0 1,0 -1,0  M142.43 225.43 L142.43 225.43 130.43 225.43 M136.43 231.43 L136.43 231.43 136.43 219.43" id="h1168633520" class="r"></path></g><g class="hrs"></g><g class="ts"><svg width="196.15" height="200" x="142.43" y="168.43" id="h3299212598" class="t"><rect height="40" width="196.15" class="th"></rect><text x="13" y="25" class="tht">Employees</text><rect height="160" width="196.15" class="t-bg" y="40"></rect><text x="13" y="61" class="tf pk">emp_no<tspan x="183.15" class="ty">INT</tspan></text><path d="M7,14A2,2 0 0,1 5,12A2,2 0 0,1 7,10A2,2 0 0,1 9,12A2,2 0 0,1 7,14M12.65,10C11.83,7.67 9.61,6 7, 6A6, 6 0 0, 0 1, 12A6, 6 0 0, 0 7, 18C9.61, 18 11.83, 16.33 12.65, 14H17V18H21V14H23V10H12.65Z" class="i pk" transform="translate(143.819921875, 48) scale(0.65)"></path><text x="13" y="86" class="tf">birth_date<tspan x="183.15" class="ty">DATE</tspan></text><text x="13" y="111" class="tf">first_name<tspan x="183.15" class="ty">VARCHAR(45)</tspan></text><path d="M814.545 581.818v-23.273H535.273v-93.09h-46.546v93.09H209.455v139.637H256V605.09h232.727v93.09h46.546v-93.09H768v93.09h46.545V581.819zM674.91 465.455H349.091V139.636h325.818v325.819zM325.82 884.364H139.635V698.182h186.182v186.182z m279.272 0H418.909V698.182h186.182v186.182z m279.273 0H698.182V698.182h186.182v186.182zM395.636 418.909h232.728V186.182H395.636v232.727zM186.182 837.82h93.09v-93.092h-93.09v93.091z m279.273 0h93.09v-93.092h-93.09v93.091z m279.272 0h93.091v-93.092h-93.09v93.091z" class="i ix" transform="translate(89.019140625, 100) scale(0.014)"></path><text x="13" y="136" class="tf">last_name<tspan x="183.15" class="ty">VARCHAR(60)</tspan></text><path d="M814.545 581.818v-23.273H535.273v-93.09h-46.546v93.09H209.455v139.637H256V605.09h232.727v93.09h46.546v-93.09H768v93.09h46.545V581.819zM674.91 465.455H349.091V139.636h325.818v325.819zM325.82 884.364H139.635V698.182h186.182v186.182z m279.272 0H418.909V698.182h186.182v186.182z m279.273 0H698.182V698.182h186.182v186.182zM395.636 418.909h232.728V186.182H395.636v232.727zM186.182 837.82h93.09v-93.092h-93.09v93.091z m279.273 0h93.09v-93.092h-93.09v93.091z m279.272 0h93.091v-93.092h-93.09v93.091z" class="i ix" transform="translate(89.019140625, 125) scale(0.014)"></path><text x="13" y="161" class="tf">gender<tspan x="183.15" class="ty">VARCHAR(1)</tspan></text><text x="13" y="186" class="tf">hire_date<tspan x="183.15" class="ty">DATE</tspan></text></svg><svg width="185.18" height="100" x="155.57" y="-1.43" id="h3708248841" class="t"><rect height="40" width="185.18" class="th"></rect><text x="13" y="25" class="tht">Departments</text><rect height="60" width="185.18" class="t-bg" y="40"></rect><text x="13" y="61" class="tf pk">dept_no<tspan x="172.18" class="ty">VARCHAR(4)</tspan></text><path d="M7,14A2,2 0 0,1 5,12A2,2 0 0,1 7,10A2,2 0 0,1 9,12A2,2 0 0,1 7,14M12.65,10C11.83,7.67 9.61,6 7, 6A6, 6 0 0, 0 1, 12A6, 6 0 0, 0 7, 18C9.61, 18 11.83, 16.33 12.65, 14H17V18H21V14H23V10H12.65Z" class="i pk" transform="translate(79.72296875, 48) scale(0.65)"></path><text x="13" y="86" class="tf">dept_name<tspan x="172.18" class="ty">VARCHAR(60)</tspan></text></svg><svg width="161.83" height="150" x="495.71" y="262.57" id="h3353995054" class="t"><rect height="40" width="161.83" class="th"></rect><text x="13" y="25" class="tht">Dept_Emp</text><rect height="110" width="161.83" class="t-bg" y="40"></rect><text x="13" y="61" class="tf fk">emp_no<tspan x="148.83" class="ty">INT</tspan></text><text x="13" y="86" class="tf fk">dept_no<tspan x="148.83" class="ty">VARCHAR(4)</tspan></text><text x="13" y="111" class="tf">from_date<tspan x="148.83" class="ty">DATE</tspan></text><text x="13" y="136" class="tf">to_date<tspan x="148.83" class="ty">DATE</tspan></text></svg><svg width="161.83" height="150" x="490.29" y="25.86" id="h754932316" class="t"><rect height="40" width="161.83" class="th"></rect><text x="13" y="25" class="tht">Dept_Manager</text><rect height="110" width="161.83" class="t-bg" y="40"></rect><text x="13" y="61" class="tf fk">dept_no<tspan x="148.83" class="ty">VARCHAR(4)</tspan></text><text x="13" y="86" class="tf fk">emp_no<tspan x="148.83" class="ty">INT</tspan></text><text x="13" y="111" class="tf">from_date<tspan x="148.83" class="ty">DATE</tspan></text><text x="13" y="136" class="tf">to_date<tspan x="148.83" class="ty">DATE</tspan></text></svg><svg width="134.01" height="150" x="-13" y="-27.57" id="h3858243705" class="t"><rect height="40" width="134.01" class="th"></rect><text x="13" y="25" class="tht">Salaries</text><rect height="110" width="134.01" class="t-bg" y="40"></rect><text x="13" y="61" class="tf fk">emp_no<tspan x="121.00999999999999" class="ty">INT</tspan></text><text x="13" y="86" class="tf">salary<tspan x="121.00999999999999" class="ty">NUMERIC</tspan></text><text x="13" y="111" class="tf">from_date<tspan x="121.00999999999999" class="ty">DATE</tspan></text><text x="13" y="136" class="tf">to_date<tspan x="121.00999999999999" class="ty">DATE</tspan></text></svg><svg width="150.48" height="150" x="-5.43" y="381.57" id="h3517680912" class="t"><rect height="40" width="150.48" class="th"></rect><text x="13" y="25" class="tht">Titles</text><rect height="110" width="150.48" class="t-bg" y="40"></rect><text x="13" y="61" class="tf fk">emp_no<tspan x="137.48" class="ty">INT</tspan></text><text x="13" y="86" class="tf">title<tspan x="137.48" class="ty">VARCHAR(255)</tspan></text><text x="13" y="111" class="tf">from_date<tspan x="137.48" class="ty">DATE</tspan></text><text x="13" y="136" class="tf">to_date<tspan x="137.48" class="ty">DATE</tspan></text></svg></g></g><text class="qdbd-link" x="10" y="20">www.quickdatabasediagrams.com</text></svg>